# xmcd
#
# Track frame offsets: 
#        150
#        11475
#        20400
#        33675
#        42675
#        52125
#        60375
#        71212
#        80775
#        90300
#        100050
#        113475
#        125430
#        137172
#        145880
#        160527
#
# Disc length: 2288 seconds
#
# Revision: 2
# Processed by: cddbd v1.5.2PL0 Copyright (c) Steve Scherf et al.
# Submitted via: ExactAudioCopy v1.0b1
#
DISCID=da08ee10
DTITLE=The Beatles - The Unreleased Tracks Vol.1
DYEAR=1990
DGENRE=
TTITLE0=Besame Mucho
TTITLE1=Ho Do You Do It?
TTITLE2=One After 909
TTITLE3=I Be On My Way
TTITLE4=Some Other Guy
TTITLE5=Too Much Monkey Business
TTITLE6=I Got To Find My Baby
TTITLE7=Youngblood
TTITLE8=A Shot Of Rhythm And Blues
TTITLE9=Sure To Fall
TTITLE10=That's Alright Mama
TTITLE11=Carol
TTITLE12=Soldier Of Love
TTITLE13=Lend Me Your Comb
TTITLE14=Clarabella
TTITLE15=Sweet Little Sixteen
EXTD=
EXTT0=
EXTT1=
EXTT2=
EXTT3=
EXTT4=
EXTT5=
EXTT6=
EXTT7=
EXTT8=
EXTT9=
EXTT10=
EXTT11=
EXTT12=
EXTT13=
EXTT14=
EXTT15=
PLAYORDER=
